<svg xmlns="http://www.w3.org/2000/svg" width="1800" height="2700" viewBox="0 0 1800 2700" role="img" aria-labelledby="title desc">
  <title id="title">부의 게임, 대충 뛰어들어 끝까지 살아남기</title>
  <desc id="desc">작은 시작, 오래 지속하는 돈 관리 시스템, 나침반과 재무 도구를 담은 출간용 앞표지 벡터 원본</desc>
  <defs>
    <linearGradient id="paper" x1="0" y1="0" x2="1" y2="1">
      <stop offset="0%" stop-color="#f7f1e7"/>
      <stop offset="50%" stop-color="#efe5d5"/>
      <stop offset="100%" stop-color="#dde8df"/>
    </linearGradient>
    <linearGradient id="board" x1="0" y1="0" x2="1" y2="1">
      <stop offset="0%" stop-color="#1d4d4a"/>
      <stop offset="100%" stop-color="#17383f"/>
    </linearGradient>
    <filter id="softShadow" x="-20%" y="-20%" width="140%" height="140%">
      <feDropShadow dx="0" dy="18" stdDeviation="20" flood-color="#17383f" flood-opacity="0.16"/>
    </filter>
  </defs>

  <rect width="1800" height="2700" fill="url(#paper)"/>
  <rect x="94" y="94" width="1612" height="2512" rx="44" fill="none" stroke="#1d4d4a" stroke-width="8"/>
  <rect x="132" y="132" width="1536" height="2436" rx="34" fill="none" stroke="#c9974d" stroke-width="3" opacity="0.72"/>

  <g opacity="0.18" stroke="#1d4d4a" stroke-width="2">
    <path d="M220 1780 H1580"/>
    <path d="M220 1880 H1580"/>
    <path d="M220 1980 H1580"/>
    <path d="M220 2080 H1580"/>
    <path d="M360 1690 V2180"/>
    <path d="M560 1690 V2180"/>
    <path d="M760 1690 V2180"/>
    <path d="M960 1690 V2180"/>
    <path d="M1160 1690 V2180"/>
    <path d="M1360 1690 V2180"/>
  </g>

  <g transform="translate(235 1268)" filter="url(#softShadow)">
    <rect x="0" y="0" width="1330" height="760" rx="36" fill="url(#board)"/>
    <rect x="58" y="58" width="1214" height="644" rx="24" fill="#f8f3ea"/>
    <path d="M130 532 C270 432 364 454 480 352 C606 242 690 306 810 208 C920 120 1016 158 1178 104" fill="none" stroke="#1d4d4a" stroke-width="18" stroke-linecap="round"/>
    <circle cx="130" cy="532" r="18" fill="#c9974d"/>
    <circle cx="480" cy="352" r="18" fill="#c9974d"/>
    <circle cx="810" cy="208" r="18" fill="#c9974d"/>
    <circle cx="1178" cy="104" r="18" fill="#c9974d"/>
    <g fill="#dce9e2">
      <rect x="132" y="590" width="100" height="46" rx="10"/>
      <rect x="302" y="570" width="100" height="66" rx="10"/>
      <rect x="472" y="526" width="100" height="110" rx="10"/>
      <rect x="642" y="482" width="100" height="154" rx="10"/>
      <rect x="812" y="414" width="100" height="222" rx="10"/>
      <rect x="982" y="328" width="100" height="308" rx="10"/>
      <rect x="1152" y="246" width="100" height="390" rx="10"/>
    </g>
  </g>

  <g transform="translate(1160 928)" filter="url(#softShadow)">
    <circle cx="210" cy="210" r="186" fill="#f8f3ea" stroke="#1d4d4a" stroke-width="16"/>
    <circle cx="210" cy="210" r="28" fill="#1d4d4a"/>
    <path d="M210 56 L262 210 L210 364 L158 210 Z" fill="#c9974d"/>
    <path d="M210 56 L158 210 L210 184 L262 210 Z" fill="#e6c98f" opacity="0.9"/>
    <text x="210" y="96" text-anchor="middle" font-family="Apple SD Gothic Neo, Noto Sans CJK KR, sans-serif" font-size="44" font-weight="700" fill="#1d4d4a">N</text>
  </g>

  <g transform="translate(246 940)" filter="url(#softShadow)">
    <rect x="0" y="0" width="580" height="330" rx="28" fill="#f8f3ea" stroke="#1d4d4a" stroke-width="10"/>
    <path d="M74 102 H506" stroke="#1d4d4a" stroke-width="10" stroke-linecap="round"/>
    <path d="M74 174 H426" stroke="#c9974d" stroke-width="10" stroke-linecap="round"/>
    <path d="M74 246 H334" stroke="#1d4d4a" stroke-width="10" stroke-linecap="round" opacity="0.72"/>
    <circle cx="502" cy="240" r="38" fill="#dce9e2" stroke="#1d4d4a" stroke-width="8"/>
  </g>

  <text x="900" y="415" text-anchor="middle" font-family="Apple SD Gothic Neo, Noto Sans CJK KR, sans-serif" font-size="64" font-weight="700" fill="#1d4d4a" letter-spacing="2">완벽한 준비보다 작은 시작을</text>
  <text x="900" y="535" text-anchor="middle" font-family="Apple SD Gothic Neo, Noto Sans CJK KR, sans-serif" font-size="142" font-weight="900" fill="#17383f">부의 게임</text>
  <text x="900" y="705" text-anchor="middle" font-family="Apple SD Gothic Neo, Noto Sans CJK KR, sans-serif" font-size="92" font-weight="800" fill="#17383f">대충 뛰어들어</text>
  <text x="900" y="832" text-anchor="middle" font-family="Apple SD Gothic Neo, Noto Sans CJK KR, sans-serif" font-size="92" font-weight="800" fill="#17383f">끝까지 살아남기</text>

  <rect x="360" y="2188" width="1080" height="168" rx="84" fill="#1d4d4a"/>
  <text x="900" y="2260" text-anchor="middle" font-family="Apple SD Gothic Neo, Noto Sans CJK KR, sans-serif" font-size="42" font-weight="700" fill="#f8f3ea">대박보다 오래 살아남는 돈 관리</text>
  <text x="900" y="2318" text-anchor="middle" font-family="Apple SD Gothic Neo, Noto Sans CJK KR, sans-serif" font-size="42" font-weight="700" fill="#f8f3ea">시스템을 선택하는 법</text>

  <text x="900" y="2472" text-anchor="middle" font-family="Apple SD Gothic Neo, Noto Sans CJK KR, sans-serif" font-size="52" font-weight="700" fill="#17383f">호호 코치 최호석</text>
</svg>
